Patient4_TMGait_0pt2_01_right_06_EMG.mot
version=1
nRows=23
nColumns=33
inDegrees=no
endheader
time	1LAddLong	2LGlutMax	3LGlutMed	4LIliopsoas	5LSemiMemb	6LBicFemLong	7LRecFem	8LVastMed	9LVastLat	10LGasMed	11LTibAnt	12lTibPost	13LPeroneusLong	14LSol	15LExtDigLong	16LFlexDigLong	17RAddLong	18RGlutMax	19RGlutMed	20RIliopsoas	21RSemiMemb	22RBicFemLong	23RRecFem	24RVastMed	25RVastLat	26RGasMed	27RTibAnt	28RTibPost	29RPeroneusLong	30RSol	31RExtDigLong	32RFlexDigLong
13.165	0.01236	0.030518	0.076904	0.020905	0.10727	0.077667	-0.03418	0.015869	-0.037689	0.00885	0.027466	0.00412	-0.014648	0.022888	0.15442	0.001373	-0.00061	-0.022888	-0.078125	0.16663	-0.084839	0.031586	0.058136	0.027924	-0.023346	-0.00946	0.013275	-0.10834	0.12039	0.0354	0.000458	-0.019531
13.166	0.006104	0.00351	0.012512	0.006409	0.06424	0.14191	-0.092621	0.023804	0.020294	-0.004272	0.040894	-0.007629	0.031128	0.028839	0.098572	0.002747	-0.011139	0.020752	-0.21988	0.10254	-0.084991	0.1387	0.013275	0.029297	0.010376	-0.012512	0.012054	0.016022	0.28809	0.30991	-0.002441	-0.026093
13.167	-0.00824	-0.004425	0.052643	-0.006714	0.038452	0.15778	-0.10773	0.035706	0.14297	0.00946	-0.15274	0.004578	0.01297	0.023193	0.067749	0.006561	-0.000153	-0.027771	-0.14114	0.059509	-0.047913	0.11673	-0.10819	-0.031281	-0.005493	-0.012817	0.011292	0.050354	0.32227	0.11902	-0.009613	-0.012054
13.168	-0.018005	-0.006256	0.020752	-0.003967	-0.016479	0.13001	-0.087433	0.03418	0.11917	0.00885	-0.19058	-0.004578	-0.019073	0.05722	0.050049	0.008545	0.022278	0.002289	0.10346	0.069122	0.070801	0.003052	-0.12909	-0.11353	-0.006256	-0.016327	-0.00946	0.018158	0.15839	-0.11154	0.000305	-0.013275
13.169	-0.023804	-0.017548	0.083618	0.003967	-0.024567	0.091705	-0.074768	0.011292	0.016479	0.00473	-0.13199	-0.00061	-0.021667	0.051117	0.029602	-0.003204	0.011444	0.080414	0.084991	0.13626	0.024414	0.059967	-0.10712	-0.089569	0.007172	-0.02182	0.027618	-0.032043	-0.47379	-0.20844	-0.00061	-0.011139
13.17	-0.02243	0	0.10773	0.007935	0.013733	0.052795	-0.03891	0.014801	-0.031433	0.002747	-0.1004	0.009308	0.006866	-0.02533	-0.034485	-0.002136	0.025787	0.007935	0.036469	0.093689	0.029297	0.010071	-0.043182	-0.071716	0.020447	-0.007782	0.014801	-0.00885	-0.71137	0.1796	-0.002899	-0.015869
13.171	-0.011444	-0.002136	0.10407	0.003204	0.00946	0.013733	0.002747	-0.00412	-0.11322	-0.013885	-0.060577	-0.00351	0.043945	-0.045624	-0.018005	0.004883	0.039673	-0.010834	-0.11353	0.030823	-0.042572	0.006409	-0.032196	-0.060272	-0.029602	0.018005	-0.021515	0.019226	0.84625	0.11246	0.003815	-0.011597
13.172	-0.011139	0.01236	0.080719	-0.000916	-0.026855	-0.037689	0.034943	-0.003662	-0.15259	-0.012817	0.053406	-0.002289	0.001526	-0.01297	0.18005	-0.000763	0.022736	-0.004578	-0.21713	0.004883	-0.000458	0.009155	-0.09613	-0.014496	-0.035095	0.049896	-0.06958	0.001831	0.83511	0.058136	0.001526	-0.001526
13.173	-0.002594	0.014343	0.059204	0.005188	-0.058746	-0.18784	0.001526	-0.01297	-0.011749	-0.000305	0.12619	-0.002441	-0.036774	-0.010986	0.040283	-0.006256	0.024567	0.006409	-0.18967	-0.010681	0.036774	0.0177	-0.022278	-0.007782	-0.015259	0.041199	0.054474	-0.022125	0.57327	0.016632	0.000153	-0.006409
13.174	0.075226	0.028534	0.049591	0.005798	-0.040436	-0.18723	-0.011749	-0.016022	0.033722	-0.007935	0.062866	0.001221	-0.03006	-0.02655	0.12665	-0.000458	0.052338	-0.015564	-0.054474	-0.066376	-0.011597	-0.003357	0.027161	-0.046234	-0.026245	-0.026245	0.11307	-0.003815	0.98755	0.010376	-0.009613	-0.018616
13.175	0.079498	0.034027	0.035858	0.026245	0.033264	-0.10086	0.018158	-0.007477	-0.000458	-0.023499	0.045166	0.000916	-0.015717	-0.024567	-0.009766	-0.002594	0.05188	-0.009308	0.15915	-0.055389	-0.10834	0.084534	-0.023499	-0.068359	-0.036774	-0.089722	0.089417	0.028381	1.2126	-0.12573	-0.008087	-0.020905
13.176	0.065308	0.041046	0.018921	-0.00946	0.05661	-0.025787	-0.00885	-0.006256	-0.040741	-0.038147	0.046692	0.008087	-0.018005	0.006104	-0.044708	0.016022	0.004425	0.02121	0.16724	-0.051727	-0.019226	0.0914	-0.084076	0.00824	-0.001068	-0.20035	0.044556	0.016479	0.616	-0.23666	-0.001068	-0.015564
13.177	-0.018311	0.013733	0.038452	-0.002594	0.031128	0.024872	0.017853	0.00061	-0.048218	-0.017242	0.011749	0.008698	0.006256	-0.06134	-0.063019	0.004425	-0.021057	-0.013428	0.083313	-0.044556	-0.065155	0.061035	-0.068207	-0.019226	0.003204	-0.19043	0.011444	-0.017548	-1.3391	-0.093689	-0.005341	-0.013428
13.178	0.016632	0.026855	0.056458	0.005646	-0.033875	0.049286	0.065765	0.014648	-0.050507	0.005035	0.014496	0.00473	-0.028839	-0.095062	-0.049286	0.004425	-0.021057	-0.050964	0.030365	0.029297	0.14145	0.000153	0.013733	0.040588	0.000305	-0.13214	0.054169	-0.081482	-1.2032	0.19486	-0.003967	-0.018005
13.179	0.017395	0.010529	0.054016	0.003967	-0.080261	0.039368	0.054321	0.02594	-0.049744	0.002136	0.039215	0.011902	-0.050507	-0.061035	0.023651	0.008698	-0.014191	-0.07309	0.028992	0.096588	0.19196	-0.036621	0.036926	0.10819	0.011749	-0.027008	0.14099	-0.28671	-1.1774	0.27069	-0.001678	-0.017395
13.18	0.027161	0.018005	0.009308	0.009918	0.016022	-0.009766	0.044403	0.017395	0.21454	-0.014801	0.002594	0.013123	0.010986	0.016785	0.037231	0.003967	0.002594	-0.053558	0.025787	0.068359	0.159	-0.044403	0.045776	-0.02594	0	0.064392	0.12299	0.17181	-0.71457	0.23773	0.004578	-0.012665
13.181	0.024719	0.031891	0.017242	0.006104	0.10269	-0.002899	0.038605	0.01358	0.22247	-0.028687	0.008545	0.01358	0.045166	0.011139	0.059204	0.001526	0.001831	-0.064697	-0.063934	0.024719	0.055542	-0.021515	0.063629	-0.01297	-0.008545	0.22858	-0.017242	0.00061	-0.72632	-0.013123	0.001221	-0.021057
13.182	0.007172	0.050354	0.065155	0.003967	0.094604	0.067749	-0.011139	0.006561	0.14297	-0.006714	0.028229	0.016174	0.043945	-0.02594	0.023041	0.017395	0.011597	-0.061035	-0.16342	-0.003662	-0.02243	0.037384	0.047302	-0.046539	0.005646	0.15991	-0.12543	-0.042877	-0.10788	-0.22797	-0.00061	-0.022278
13.183	-0.001221	0.041962	-0.002441	-0.003662	0.01236	0.057526	-0.055237	-0.00061	0.066833	0.00061	0.052795	0.014343	-0.002747	-0.04364	0.025177	0.005493	0.017395	-0.062256	-0.17319	-0.020142	0.0354	0.002441	0.018158	-0.072937	0.020905	0.062561	-0.11078	-0.033417	0.83359	-0.16968	-0.005951	-0.002747
13.184	0.007324	0.020294	-0.079498	0.010529	-0.057678	0.023346	-0.18158	0.005493	-0.000763	0.009613	0.068817	0.01358	-0.006104	-0.014954	0.026703	0.016785	0.000763	-0.11719	-0.054932	0.004578	-0.037537	0.056305	-0.094147	-0.10986	-0.036774	-0.005646	-0.071716	-0.13641	0.92285	0.36377	0.003662	-0.010223
13.185	0.00824	0.050812	0.041199	0.006714	-0.036316	-0.070038	-0.23163	0.008698	-0.059204	-0.001678	-0.034485	0.020752	0.046692	-0.028687	0.018463	0.01358	0.000305	-0.044403	0.10269	0.010986	-0.11597	0.099487	-0.0177	-0.046234	-0.1268	-0.054626	-0.004578	0.1178	0.92438	0.79849	0.002136	0.001221
13.186	0.003052	-0.004272	0.076599	0.007782	-0.010376	-0.073242	-0.059662	0.009613	-0.21133	0.018921	-0.040588	0.019989	0.024414	-0.0177	0.029602	0.006866	-0.007477	-0.059814	0.15442	0.011902	-0.03891	0.042419	-0.035553	-0.034485	-0.13733	-0.089722	0.0354	0.23514	-0.037689	0.71793	-0.00412	-0.001678
13.187	-0.02182	0.038147	-0.001984	-0.00061	0.040741	-0.014496	0.10819	0.00412	-0.30518	0.021057	-0.006561	0.015869	-0.016937	-0.006409	0.022736	0.000458	0.016785	-0.048218	0.090637	-0.030365	0.14297	-0.13519	0.035248	-0.072327	-0.15289	-0.03952	0.007629	0.074615	-0.17075	0.16602	0.000305	-0.008698
